<?xml version="1.0"?>
<svg xmlns="http://www.w3.org/2000/svg" xmlns:xlink="http://www.w3.org/1999/xlink" xmlns:svgjs="http://svgjs.com/svgjs" version="1.1" width="512" height="512" x="0" y="0" viewBox="0 0 512 512" style="enable-background:new 0 0 512 512" xml:space="preserve" class=""><rect width="512" height="512" rx="20" ry="20" fill="#ffffff" shape="rounded" transform="matrix(0.93,0,0,0.93,17.919999999999987,17.919999999999987)"/><g transform="matrix(0.7,0,0,0.7,76.79984893798829,76.80000000000001)"><g xmlns="http://www.w3.org/2000/svg"><path d="m418.474 0h-324.949v64.559h114.593c42.083 0 77.976 26.986 91.3 64.559h-205.893v64.559h205.893c-13.324 37.573-49.217 64.559-91.3 64.559h-114.593v64.559l189.203 189.205 45.65-45.651-143.552-143.552h23.292c77.943 0 143.158-55.538 158.153-129.119h52.203v-64.559h-52.203c-4.858-23.84-14.99-45.783-29.116-64.559h81.319z" fill="#95dbaa" data-original="#000000" style="" class=""/></g></g></svg>
